<?xml version="1.0" standalone="no"?>
<!DOCTYPE svg PUBLIC "-//W3C//DTD SVG 20010904//EN"
 "http://www.w3.org/TR/2001/REC-SVG-20010904/DTD/svg10.dtd">
<svg version="1.0" xmlns="http://www.w3.org/2000/svg"
 width="260.000000pt" height="260.000000pt" viewBox="0 0 260.000000 260.000000"
 preserveAspectRatio="xMidYMid meet">
<metadata>
Created by potrace 1.11, written by Peter Selinger 2001-2013
</metadata>
<g transform="translate(0.000000,260.000000) scale(0.100000,-0.100000)"
fill="#000000" stroke="none">
<path d="M830 1520 l0 -450 300 0 300 0 0 -80 c0 -79 -1 -82 -71 -223 -45 -90
-86 -157 -112 -185 l-41 -42 74 -75 74 -75 39 38 c28 27 71 100 153 264 l114
228 0 525 0 525 -115 0 -115 0 0 -340 0 -340 -185 0 -185 0 0 340 0 340 -115
0 -115 0 0 -450z"/>
</g>
</svg>
